<svg width="352" height="406" viewBox="0 0 352 406" fill="none" xmlns="http://www.w3.org/2000/svg">
<path d="M22.1931 405.446C83.4575 406.006 144.822 391.443 196.659 353.162C248.77 314.679 286.243 255.635 313.061 190.642C340.32 124.581 356.2 52.6526 350.825 -20.4609C345.251 -96.2805 323.755 -170.708 282.197 -229.172C240.197 -288.259 179.238 -320.029 118.08 -347.881C52.0333 -377.96 -19.7028 -426.284 -85.9558 -396.833C-152.142 -367.411 -160.279 -259.862 -210.766 -201.702C-267.901 -135.883 -383.032 -128.073 -399.115 -36.0807C-414.929 54.3711 -327.916 123.258 -280.465 196.954C-242.713 255.585 -204.559 312.771 -150.533 349.988C-98.0024 386.175 -38.7346 404.89 22.1931 405.446Z" fill="url(#paint0_linear_322_1614)"/>
<defs>
<linearGradient id="paint0_linear_322_1614" x1="-17.0939" y1="405.461" x2="-94.9847" y2="-399.913" gradientUnits="userSpaceOnUse">
<stop offset="0.144231" stop-color="#040404"/>
<stop offset="1" stop-color="#5BB5CF"/>
</linearGradient>
</defs>
</svg>
