<svg width="30" height="31" viewBox="0 0 30 31" fill="none" xmlns="http://www.w3.org/2000/svg">
<g clip-path="url(#clip0_414_411)">
<path d="M11.5755 28.3042C12.242 28.3042 12.7824 27.7313 12.7824 27.0245C12.7824 26.3178 12.242 25.7449 11.5755 25.7449C10.909 25.7449 10.3687 26.3178 10.3687 27.0245C10.3687 27.7313 10.909 28.3042 11.5755 28.3042Z" stroke="black" stroke-width="2.55935" stroke-linecap="round" stroke-linejoin="round"/>
<path d="M24.8509 28.3042C25.5174 28.3042 26.0578 27.7313 26.0578 27.0245C26.0578 26.3178 25.5174 25.7449 24.8509 25.7449C24.1844 25.7449 23.644 26.3178 23.644 27.0245C23.644 27.7313 24.1844 28.3042 24.8509 28.3042Z" stroke="black" stroke-width="2.55935" stroke-linecap="round" stroke-linejoin="round"/>
<path d="M2 0H6.82743L10.0618 17.1348C10.1722 17.724 10.4744 18.2532 10.9157 18.6299C11.357 19.0065 11.9091 19.2066 12.4755 19.1951H24.2062C24.7726 19.2066 25.3247 19.0065 25.766 18.6299C26.2073 18.2532 26.5095 17.724 26.6199 17.1348L28.5509 6.39836H8.03429" stroke="black" stroke-width="2.55935" stroke-linecap="round" stroke-linejoin="round"/>
</g>
<defs>
<clipPath id="clip0_414_411">
<rect width="28.9646" height="30.7121" fill="white" transform="translate(0.713867 0.151367)"/>
</clipPath>
</defs>
</svg>
