<svg width="12" height="10" viewBox="0 0 12 10" fill="none" xmlns="http://www.w3.org/2000/svg">
<path fill-rule="evenodd" clip-rule="evenodd" d="M0.151812 4.89853C0.354233 4.68812 0.682414 4.68812 0.884835 4.89853L4.06216 8.20159C4.26457 8.41201 4.26457 8.7532 4.06216 8.96361C3.85974 9.17403 3.53156 9.17403 3.32913 8.96361L0.151812 5.66055C-0.0506039 5.45014 -0.0506039 5.10895 0.151812 4.89853Z" fill="#C2FA7C"/>
<path fill-rule="evenodd" clip-rule="evenodd" d="M11.2498 0.727888C11.4522 0.938319 11.4522 1.27949 11.2498 1.48992L4.06061 8.96355C3.8582 9.17397 3.53001 9.17397 3.3276 8.96355C3.12518 8.75314 3.12518 8.41195 3.3276 8.20153L10.5167 0.727888C10.7191 0.517462 11.0474 0.517462 11.2498 0.727888Z" fill="#C2FA7C"/>
</svg>
