<svg width="21" height="22" viewBox="0 0 21 22" fill="none" xmlns="http://www.w3.org/2000/svg">
<path d="M17.3101 4.25217C15.9835 3.63448 14.5831 3.19627 13.1446 2.94873C12.9477 3.30663 12.7696 3.67487 12.611 4.05189C11.0787 3.81705 9.52041 3.81705 7.9881 4.05189C7.82938 3.6749 7.65127 3.30668 7.4545 2.94873C6.01505 3.19836 4.6137 3.63761 3.28581 4.2554C0.649601 8.22225 -0.0650332 12.0906 0.292284 15.904C1.83611 17.0641 3.5641 17.9464 5.40112 18.5125C5.81477 17.9466 6.18079 17.3464 6.49531 16.718C5.89793 16.4911 5.32135 16.2111 4.77224 15.8814C4.91676 15.7748 5.0581 15.6649 5.19467 15.5583C6.79243 16.3225 8.5363 16.7188 10.3019 16.7188C12.0675 16.7188 13.8114 16.3225 15.4092 15.5583C15.5473 15.673 15.6887 15.7828 15.8316 15.8814C15.2814 16.2117 14.7038 16.4922 14.1054 16.7196C14.4195 17.3477 14.7855 17.9475 15.1995 18.5125C17.0381 17.9486 18.7675 17.0668 20.3116 15.9056V15.9056C20.7308 11.4833 19.5953 7.65048 17.3101 4.25217ZM6.94791 13.5588C5.95218 13.5588 5.12956 12.6397 5.12956 11.5091C5.12956 10.3785 5.9236 9.45139 6.94473 9.45139C7.96586 9.45139 8.78214 10.3785 8.76467 11.5091C8.7472 12.6397 7.96269 13.5588 6.94791 13.5588ZM13.6559 13.5588C12.6586 13.5588 11.8392 12.6397 11.8392 11.5091C11.8392 10.3785 12.6332 9.45139 13.6559 9.45139C14.6787 9.45139 15.4886 10.3785 15.4711 11.5091C15.4536 12.6397 14.6707 13.5588 13.6559 13.5588Z" fill="#5865F2"/>
</svg>
