<svg width="21" height="22" viewBox="0 0 21 22" fill="none" xmlns="http://www.w3.org/2000/svg">
<path d="M10.9036 0.84668C5.32874 0.84668 0.808105 5.48087 0.808105 11.1977C0.808105 15.771 3.70077 19.651 7.71201 21.0197C8.21655 21.1155 8.40178 20.7951 8.40178 20.5217C8.40178 20.2749 8.39242 19.4595 8.38807 18.5946C5.5795 19.2208 4.98686 17.3733 4.98686 17.3733C4.52762 16.1769 3.86594 15.8588 3.86594 15.8588C2.94998 15.2163 3.93498 15.2295 3.93498 15.2295C4.94874 15.3025 5.48254 16.2962 5.48254 16.2962C6.38295 17.8786 7.84425 17.4211 8.42034 17.1567C8.51095 16.4877 8.77258 16.031 9.0613 15.7725C6.81895 15.5108 4.46176 14.6233 4.46176 10.657C4.46176 9.52695 4.85613 8.60358 5.50193 7.87869C5.39711 7.61798 5.05156 6.56519 5.59973 5.13942C5.59973 5.13942 6.44748 4.86123 8.37671 6.20044C9.182 5.97109 10.0456 5.85608 10.9036 5.85213C11.7615 5.85608 12.6258 5.97109 13.4326 6.20044C15.3595 4.86123 16.2061 5.13942 16.2061 5.13942C16.7556 6.56519 16.4099 7.61798 16.3051 7.87869C16.9524 8.60358 17.3441 9.52695 17.3441 10.657C17.3441 14.6327 14.9824 15.5081 12.7343 15.7643C13.0964 16.0855 13.4191 16.7155 13.4191 17.6812C13.4191 19.0661 13.4074 20.1808 13.4074 20.5217C13.4074 20.7972 13.5891 21.12 14.1008 21.0183C18.1099 19.6481 20.9989 15.7695 20.9989 11.1977C20.9989 5.48087 16.4789 0.84668 10.9036 0.84668Z" fill="white"/>
<path d="M4.66147 15.6377C4.63928 15.6886 4.56052 15.7038 4.48876 15.6689C4.41568 15.6354 4.37463 15.566 4.39832 15.5149C4.42001 15.4625 4.49894 15.4479 4.57186 15.483C4.64512 15.5165 4.68683 15.5866 4.66147 15.6377Z" fill="#161514"/>
<path d="M5.06962 16.1006C5.02156 16.1459 4.92762 16.1249 4.86387 16.0532C4.79796 15.9818 4.78561 15.8862 4.83434 15.8402C4.8839 15.7949 4.97501 15.8161 5.04108 15.8876C5.107 15.9599 5.11985 16.0548 5.06962 16.1006Z" fill="#161514"/>
<path d="M5.46704 16.6909C5.4053 16.7345 5.30435 16.6936 5.24194 16.6025C5.1802 16.5113 5.1802 16.402 5.24328 16.3583C5.30585 16.3145 5.4053 16.3538 5.46854 16.4443C5.53012 16.537 5.53012 16.6463 5.46704 16.6909Z" fill="#161514"/>
<path d="M6.01126 17.2611C5.95602 17.3231 5.83838 17.3064 5.75228 17.2219C5.66418 17.1393 5.63965 17.022 5.69505 16.96C5.75095 16.8979 5.86925 16.9154 5.95602 16.9992C6.04346 17.0817 6.07016 17.1998 6.01126 17.2611Z" fill="#161514"/>
<path d="M6.76233 17.592C6.73796 17.6723 6.62466 17.7088 6.51053 17.6747C6.39656 17.6395 6.32197 17.5455 6.345 17.4644C6.36869 17.3836 6.48249 17.3456 6.59746 17.3821C6.71127 17.417 6.78602 17.5104 6.76233 17.592Z" fill="#161514"/>
<path d="M7.58683 17.6535C7.58966 17.738 7.49288 17.8081 7.37307 17.8096C7.25259 17.8123 7.15514 17.7439 7.15381 17.6608C7.15381 17.5754 7.24842 17.506 7.3689 17.504C7.48871 17.5016 7.58683 17.5695 7.58683 17.6535Z" fill="#161514"/>
<path d="M8.35395 17.5205C8.3683 17.603 8.28503 17.6877 8.16606 17.7103C8.04908 17.732 7.94079 17.6811 7.92594 17.5993C7.91142 17.5147 7.99619 17.43 8.11299 17.4082C8.23213 17.3871 8.33876 17.4367 8.35395 17.5205Z" fill="#161514"/>
</svg>
