<svg width="33" height="32" viewBox="0 0 33 32" fill="none" xmlns="http://www.w3.org/2000/svg">
<path d="M24.0591 29.7964C22.426 31.3795 20.6429 31.1295 18.9265 30.3796C17.11 29.6131 15.4436 29.5797 13.5271 30.3796C11.1274 31.4128 9.86093 31.1129 8.42778 29.7964C0.295471 21.4141 1.49532 8.64903 10.7275 8.18243C12.9772 8.29908 14.5437 9.4156 15.8602 9.51559C17.8266 9.11564 19.7097 7.96579 21.8094 8.11577C24.3258 8.31574 26.2255 9.31562 27.4754 11.1154C22.276 14.2317 23.5092 21.0808 28.2753 22.9972C27.3254 25.4969 26.0922 27.9799 24.0425 29.813L24.0591 29.7964V29.7964ZM15.6935 8.08244C15.4436 4.36624 18.4598 1.29996 21.9261 1C22.4093 5.29946 18.0266 8.49905 15.6935 8.08244Z" fill="white"/>
</svg>
