<svg width="33" height="32" viewBox="0 0 33 32" fill="none" xmlns="http://www.w3.org/2000/svg">
<g clip-path="url(#clip0_218_2103)">
<path d="M32.4847 16.2993C32.4847 14.9883 32.3758 14.0316 32.1402 13.0395H16.8187V18.9568H25.8121C25.6308 20.4273 24.6517 22.6419 22.4759 24.1301L22.4454 24.3282L27.2897 27.9951L27.6254 28.0278C30.7077 25.2463 32.4847 21.1537 32.4847 16.2993Z" fill="#4285F4"/>
<path d="M16.5781 31.7915C20.9841 31.7915 24.683 30.374 27.3848 27.9292L22.2353 24.0315C20.8573 24.9704 19.0077 25.626 16.5781 25.626C12.2628 25.626 8.60012 22.8445 7.2945 19L7.10313 19.0159L2.06587 22.825L2 23.0039C4.6835 28.2126 10.1956 31.7915 16.5781 31.7915Z" fill="#34A853"/>
<path d="M7.53512 19.0986C7.19062 18.1065 6.99125 17.0434 6.99125 15.945C6.99125 14.8465 7.19062 13.7835 7.517 12.7914L7.50787 12.5801L2.4075 8.70984L2.24062 8.7874C1.13463 10.9489 0.5 13.3761 0.5 15.945C0.5 18.5139 1.13463 20.941 2.24062 23.1025L7.53512 19.0986Z" fill="#FBBC05"/>
<path d="M16.8187 6.16537C19.883 6.16537 21.95 7.45869 23.1286 8.53948L27.7341 4.14571C24.9056 1.57679 21.2247 0 16.8187 0C10.4362 0 4.9241 3.57875 2.2406 8.78742L7.51698 12.7915C8.84073 8.94693 12.5034 6.16537 16.8187 6.16537Z" fill="#EB4335"/>
</g>
<defs>
<clipPath id="clip0_218_2103">
<rect width="32" height="32" fill="white" transform="translate(0.5)"/>
</clipPath>
</defs>
</svg>
