<svg width="33" height="32" viewBox="0 0 33 32" fill="none" xmlns="http://www.w3.org/2000/svg">
<path d="M24.5591 30.0464C22.926 31.6295 21.1429 31.3795 19.4265 30.6296C17.61 29.8631 15.9436 29.8297 14.0271 30.6296C11.6274 31.6628 10.3609 31.3629 8.92778 30.0464C0.795471 21.6641 1.99532 8.89903 11.2275 8.43243C13.4772 8.54908 15.0437 9.6656 16.3602 9.76559C18.3266 9.36564 20.2097 8.21579 22.3094 8.36577C24.8258 8.56574 26.7255 9.56562 27.9754 11.3654C22.776 14.4817 24.0092 21.3308 28.7753 23.2472C27.8254 25.7469 26.5922 28.2299 24.5425 30.063L24.5591 30.0464ZM16.1935 8.33244C15.9436 4.61624 18.9598 1.54996 22.4261 1.25C22.9093 5.54946 18.5266 8.74905 16.1935 8.33244Z" fill="black"/>
</svg>
