<svg width="517" height="384" viewBox="0 0 517 384" fill="none" xmlns="http://www.w3.org/2000/svg">
<g clip-path="url(#clip0_73_170)">
<path d="M102.48 381.747C159.078 382.058 204.98 378.598 205.005 374.019C205.03 369.44 159.169 365.476 102.571 365.166C45.9728 364.856 0.0705874 368.316 0.0454783 372.895C0.0203691 377.474 45.8818 381.437 102.48 381.747Z" fill="#E6E6E6"/>
<path d="M79.9602 85.0079C97.8391 77.0255 120.024 82.2669 141.699 85.939C141.924 81.6372 144.4 76.4138 141.853 73.3978C138.759 69.7337 139.067 65.9032 140.962 62.0594C145.807 52.2301 139 41.7057 132.115 32.948C130.564 30.9785 128.598 29.4269 126.377 28.4193C124.156 27.4117 121.743 26.9765 119.333 27.149L106.487 28.0556C103.361 28.2762 100.372 29.5084 97.9207 31.5873C95.4689 33.6662 93.6711 36.4927 92.7679 39.6886C89.6775 44.1136 88.0121 48.5342 89.0212 52.9463C84.4103 56.2642 83.6165 60.2955 85.6553 64.856C87.3895 67.73 87.3556 70.5181 85.5298 73.2192C83.1326 76.6626 81.2899 80.5065 80.0773 84.5936L79.9602 85.0079Z" fill="#2F2E41"/>
<path d="M502.441 332.283L138.95 330.289C135.717 330.271 132.625 328.887 130.352 326.439C128.08 323.992 126.814 320.683 126.833 317.24C258.688 301.65 387.977 302.359 514.7 319.367C514.681 322.81 513.379 326.105 511.08 328.527C508.781 330.949 505.673 332.3 502.441 332.283Z" fill="#2F2E41"/>
<path d="M514.696 320.13L126.833 317.24L172.227 236.918L172.444 236.537L173.418 58.9735C173.43 56.8182 173.84 54.6862 174.625 52.6992C175.41 50.7123 176.555 48.9092 177.994 47.3931C179.433 45.877 181.138 44.6774 183.012 43.863C184.886 43.0485 186.892 42.6351 188.915 42.6464L453.482 44.0972C455.505 44.1082 457.507 44.5435 459.371 45.3785C461.236 46.2134 462.928 47.4316 464.351 48.9634C465.773 50.4952 466.898 52.3107 467.661 54.3062C468.424 56.3017 468.811 58.438 468.799 60.5933L467.819 239.379L514.696 320.13Z" fill="#3F3D56"/>
<path d="M188.501 54.0996C187.17 54.0939 185.892 54.6507 184.945 55.6477C183.999 56.6447 183.462 58.0006 183.453 59.4179L182.565 221.319C182.559 222.736 183.081 224.097 184.016 225.105C184.952 226.112 186.224 226.683 187.555 226.692L454.975 228.158C456.306 228.164 457.584 227.607 458.53 226.61C459.477 225.613 460.014 224.257 460.023 222.84L460.911 60.9394C460.917 59.5221 460.395 58.1605 459.46 57.1531C458.524 56.1458 457.252 55.5751 455.921 55.5661L188.501 54.0996Z" fill="white"/>
<path d="M188.558 248.081C188.147 248.079 187.744 248.203 187.396 248.438C187.049 248.672 186.771 249.007 186.596 249.404L172.569 281.402C172.417 281.751 172.349 282.134 172.371 282.518C172.394 282.901 172.507 283.272 172.7 283.597C172.893 283.921 173.159 284.189 173.475 284.375C173.79 284.561 174.144 284.66 174.505 284.662L465.79 286.259C466.156 286.261 466.517 286.163 466.839 285.975C467.16 285.786 467.431 285.514 467.625 285.182C467.82 284.851 467.931 284.473 467.95 284.083C467.969 283.693 467.893 283.304 467.731 282.954L452.851 250.797C452.676 250.414 452.403 250.092 452.064 249.867C451.726 249.641 451.334 249.521 450.935 249.52L188.558 248.081Z" fill="#2F2E41"/>
<path d="M321.15 52.1541C322.932 52.1638 324.385 50.6332 324.395 48.7352C324.406 46.8372 322.97 45.2907 321.188 45.2809C319.406 45.2712 317.953 46.8018 317.943 48.6998C317.933 50.5978 319.369 52.1443 321.15 52.1541Z" fill="white"/>
<path d="M291.207 291.412C290.734 291.41 290.274 291.573 289.897 291.878C289.52 292.182 289.247 292.61 289.121 293.095L285.571 306.823C285.483 307.162 285.47 307.518 285.532 307.863C285.594 308.208 285.73 308.534 285.929 308.814C286.129 309.094 286.386 309.322 286.681 309.479C286.976 309.636 287.302 309.719 287.632 309.721L353.708 310.083C354.051 310.085 354.389 310 354.695 309.834C355.001 309.668 355.265 309.427 355.465 309.131C355.666 308.834 355.797 308.491 355.847 308.13C355.898 307.768 355.867 307.4 355.756 307.054L351.365 293.283C351.221 292.832 350.949 292.44 350.586 292.162C350.223 291.884 349.788 291.733 349.341 291.73L291.207 291.412Z" fill="#2F2E41"/>
<path d="M467.84 235.484L467.823 238.538L172.227 236.918L172.452 236.537L172.466 233.864L467.84 235.484Z" fill="#2F2E41"/>
<path d="M460.286 109.431C488.003 109.583 510.604 85.7727 510.765 56.2488C510.927 26.7249 488.59 2.6678 460.873 2.51581C433.156 2.36382 410.555 26.1744 410.393 55.6983C410.231 85.2222 432.569 109.279 460.286 109.431Z" fill="#C2FA7C"/>
<path d="M481.243 79.3799L439.66 79.1518C438.9 79.1469 438.173 78.8208 437.638 78.2451C437.104 77.6695 436.806 76.8913 436.809 76.0814L436.956 49.3525C436.961 48.5426 437.268 47.7678 437.809 47.198C438.349 46.6283 439.08 46.3102 439.84 46.3135L481.423 46.5415C482.184 46.5465 482.911 46.8727 483.445 47.4483C483.98 48.0239 484.278 48.8021 484.274 49.612L484.128 76.3408C484.123 77.1508 483.816 77.9256 483.275 78.4954C482.734 79.0651 482.004 79.3832 481.243 79.3799ZM439.824 49.3682L439.677 76.0971L481.262 76.3251L481.406 49.5962L439.824 49.3682Z" fill="white"/>
<path d="M473.52 49.553L447.71 49.4115L447.777 37.1926C447.826 28.3424 453.288 21.9487 460.766 21.9897C468.243 22.0307 473.636 28.4839 473.587 37.3341L473.52 49.553ZM450.595 46.3725L470.669 46.4826L470.719 37.3184C470.759 30.1242 466.659 25.0769 460.749 25.0445C454.839 25.012 450.684 30.0141 450.645 37.2083L450.595 46.3725Z" fill="white"/>
<path d="M460.529 65.1377C462.113 65.1464 463.404 63.7858 463.414 62.0987C463.423 60.4116 462.146 59.0369 460.563 59.0282C458.979 59.0196 457.687 60.3802 457.678 62.0672C457.669 63.7543 458.945 65.129 460.529 65.1377Z" fill="white"/>
<path d="M424.902 173.077L218.23 171.943C217.215 171.936 216.245 171.501 215.531 170.733C214.818 169.965 214.42 168.926 214.425 167.846L214.724 113.237C214.731 112.156 215.141 111.122 215.862 110.362C216.584 109.602 217.559 109.177 218.574 109.181L425.246 110.315C426.261 110.321 427.231 110.757 427.944 111.525C428.658 112.293 429.056 113.331 429.051 114.412L428.751 169.021C428.744 170.102 428.335 171.136 427.613 171.896C426.892 172.656 425.917 173.081 424.902 173.077ZM218.565 110.812C217.956 110.809 217.371 111.064 216.938 111.52C216.505 111.976 216.259 112.597 216.255 113.245L215.956 167.854C215.953 168.503 216.192 169.126 216.62 169.587C217.048 170.047 217.63 170.309 218.239 170.313L424.911 171.446C425.52 171.449 426.105 171.194 426.538 170.738C426.971 170.281 427.216 169.661 427.221 169.013L427.52 114.404C427.523 113.755 427.284 113.132 426.856 112.671C426.428 112.21 425.846 111.949 425.237 111.945L218.565 110.812Z" fill="#E6E6E6"/>
<path d="M250.435 155.25C259.045 155.297 266.066 147.9 266.116 138.729C266.167 129.557 259.227 122.084 250.617 122.037C242.007 121.989 234.986 129.386 234.936 138.558C234.885 147.729 241.825 155.202 250.435 155.25Z" fill="#E6E6E6"/>
<path d="M286.593 127.769C286.251 127.767 285.912 127.836 285.596 127.973C285.279 128.111 284.991 128.313 284.748 128.569C284.505 128.824 284.312 129.129 284.179 129.464C284.046 129.799 283.977 130.159 283.975 130.523C283.973 130.887 284.038 131.247 284.167 131.584C284.296 131.921 284.487 132.227 284.727 132.486C284.967 132.744 285.253 132.95 285.568 133.09C285.883 133.231 286.221 133.304 286.562 133.305L409.057 133.977C409.746 133.981 410.408 133.693 410.899 133.176C411.389 132.66 411.666 131.957 411.67 131.223C411.674 130.489 411.404 129.784 410.92 129.262C410.436 128.74 409.776 128.445 409.087 128.441L286.593 127.769Z" fill="#E6E6E6"/>
<path d="M286.502 144.376C285.813 144.372 285.15 144.66 284.66 145.177C284.17 145.693 283.892 146.396 283.888 147.13C283.884 147.864 284.154 148.569 284.638 149.091C285.123 149.613 285.782 149.908 286.471 149.912L339.181 150.201C339.87 150.204 340.533 149.916 341.023 149.4C341.513 148.884 341.791 148.181 341.795 147.447C341.799 146.713 341.529 146.008 341.044 145.486C340.56 144.964 339.9 144.669 339.211 144.665L286.502 144.376Z" fill="#E6E6E6"/>
<path d="M172.223 144.869L133.9 166.295L133.515 148.263C145.997 146.114 157.882 142.318 168.886 136.093L172.939 125.6C173.381 124.456 174.094 123.455 175.009 122.693C175.924 121.932 177.008 121.436 178.156 121.256C179.305 121.076 180.477 121.217 181.558 121.665C182.639 122.113 183.592 122.853 184.324 123.812C185.394 125.215 185.923 127 185.804 128.804C185.684 130.608 184.926 132.297 183.681 133.529L172.223 144.869Z" fill="#FFB8B8"/>
<path d="M78.1883 269.273C77.9155 268.183 77.8626 267.043 78.033 265.929C78.2033 264.815 78.5931 263.752 79.1767 262.809L87.6445 249.136C89.6473 245.902 92.706 243.575 96.2272 242.606C99.7484 241.637 103.481 242.096 106.701 243.893C103.139 250.269 103.599 255.882 107.826 260.781C101.204 264.178 95.0771 268.577 89.6346 273.839C88.6424 274.552 87.5049 275.001 86.3169 275.151C85.129 275.3 83.9249 275.145 82.805 274.698C81.6852 274.251 80.6819 273.526 79.8789 272.582C79.0758 271.638 78.4962 270.504 78.1883 269.273Z" fill="#2F2E41"/>
<path d="M173.377 251.856C172.094 254.104 170.291 255.963 168.141 257.255C165.99 258.548 163.565 259.23 161.096 259.236L105.339 259.38L103.003 244.428L127.709 236.836L107.008 219.723L129.892 191.515L170.951 232.728C173.351 235.137 174.902 238.351 175.343 241.833C175.784 245.314 175.09 248.853 173.377 251.856Z" fill="#2F2E41"/>
<path d="M96.1173 353.602L83.0599 353.53C71.8057 267.867 60.3428 181.962 95.7823 150.117L137.333 157.556L131.807 195.132L108.439 223.337L96.1173 353.602Z" fill="#2F2E41"/>
<path d="M107.489 373.056C106.465 373.347 105.395 373.404 104.35 373.224C103.304 373.043 102.306 372.629 101.422 372.008L87.2551 369.9C84.2202 367.769 82.0374 364.513 81.1301 360.763C80.2229 357.013 80.656 353.037 82.3454 349.606C88.3288 353.395 93.5985 352.9 98.2003 348.394C101.396 355.367 106.727 354.972 111.783 360.86C112.451 361.916 112.873 363.128 113.012 364.393C113.151 365.658 113.005 366.941 112.585 368.134C112.165 369.327 111.483 370.396 110.597 371.252C109.71 372.109 108.645 372.727 107.489 373.056Z" fill="#2F2E41"/>
<path d="M128.498 93.1144L104.351 86.8002C108.415 78.066 108.799 68.3247 106.927 57.966L123.373 57.541C123.817 70.412 125.31 82.4426 128.498 93.1144Z" fill="#FFB8B8"/>
<path d="M134.705 173.053C117.033 185.733 104.663 173.325 95.2761 154.235C96.6588 142.592 94.5998 128.639 90.7279 113.469C89.0056 106.778 89.7014 99.6409 92.678 93.4661C95.6546 87.2914 100.696 82.5281 106.806 80.1167L127.55 89.5032C145.123 104.931 148.508 121.557 141.787 139.036L134.705 173.053Z" fill="#C2FA7C"/>
<path d="M84.4186 105.751L65.015 116.463L99.2325 138.287L103.941 150.866C104.256 151.706 104.406 152.605 104.383 153.509C104.361 154.413 104.166 155.302 103.81 156.123C103.454 156.944 102.945 157.68 102.314 158.284C101.682 158.889 100.942 159.351 100.138 159.641C99.2242 159.971 98.2511 160.072 97.295 159.934C96.3389 159.797 95.4258 159.425 94.6272 158.849C93.8287 158.273 93.1663 157.508 92.692 156.613C92.2176 155.718 91.9443 154.719 91.8932 153.693L91.4581 144.941L47.9014 129.362C46.4339 128.837 45.098 127.963 43.9949 126.806C42.8917 125.65 42.0503 124.241 41.5344 122.686C40.7823 120.42 40.7569 117.952 41.4622 115.667C42.1675 113.383 43.5636 111.412 45.4322 110.062L80.6656 84.6097L84.4186 105.751Z" fill="#FFB8B8"/>
<path d="M103.752 107.918C95.7045 104.108 88.3459 108.159 79.0679 111.389L77.7668 84.0787C86.9902 78.9089 95.7645 77.5496 103.896 81.6462L103.752 107.918Z" fill="#C2FA7C"/>
<path d="M113.605 71.0115C122.132 71.0583 129.084 63.7337 129.134 54.6515C129.183 45.5694 122.312 38.169 113.786 38.1223C105.259 38.0755 98.307 45.4001 98.2572 54.4822C98.2074 63.5643 105.079 70.9648 113.605 71.0115Z" fill="#FFB8B8"/>
<path d="M132.176 52.5933C116.882 54.1041 105.249 51.3774 97.8471 43.7548L97.8806 37.6489L130.96 37.8303L132.176 52.5933Z" fill="#2F2E41"/>
</g>
<defs>
<clipPath id="clip0_73_170">
<rect width="514.353" height="381.191" fill="white" transform="translate(2.09033) rotate(0.314193)"/>
</clipPath>
</defs>
</svg>
