<svg width="21" height="22" viewBox="0 0 21 22" fill="none" xmlns="http://www.w3.org/2000/svg">
<path d="M16.6968 5.55328C16.6968 4.88225 16.1529 4.34042 15.4844 4.34042C14.8158 4.34042 14.2715 4.88225 14.2715 5.55328C14.2715 6.22185 14.8158 6.76367 15.4844 6.76367C16.1529 6.76367 16.6968 6.22185 16.6968 5.55328Z" fill="url(#paint0_linear_414_509)"/>
<path d="M18.3104 15.0201C18.2655 16.0045 18.1008 16.5393 17.9641 16.8946C17.7805 17.3656 17.5615 17.7023 17.2063 18.0556C16.855 18.4088 16.5183 18.6273 16.0473 18.8089C15.6921 18.9476 15.1552 19.1128 14.1709 19.1597C13.1067 19.2066 12.7913 19.2166 10.0927 19.2166C7.39653 19.2166 7.07869 19.2066 6.0145 19.1597C5.03015 19.1128 4.49581 18.9476 4.14055 18.8089C3.66709 18.6273 3.33283 18.4088 2.97959 18.0556C2.62385 17.7023 2.40484 17.3656 2.22373 16.8946C2.087 16.5393 1.91989 16.0045 1.87745 15.0201C1.82559 13.9559 1.81609 13.6356 1.81609 10.9425C1.81609 8.24382 1.82559 7.92599 1.87745 6.86179C1.91989 5.87745 2.087 5.34311 2.22373 4.98486C2.40484 4.51439 2.62385 4.1796 2.97959 3.82636C3.33283 3.47365 3.66709 3.2546 4.14055 3.07103C4.49581 2.93183 5.03015 2.76917 6.0145 2.72228C7.07869 2.67536 7.39653 2.66338 10.0927 2.66338C12.7913 2.66338 13.1067 2.67536 14.1709 2.72228C15.1552 2.76917 15.6921 2.93183 16.0473 3.07103C16.5183 3.2546 16.855 3.47365 17.2063 3.82636C17.5615 4.1796 17.7805 4.51439 17.9641 4.98486C18.1008 5.34311 18.2655 5.87745 18.3104 6.86179C18.3598 7.92599 18.3717 8.24382 18.3717 10.9425C18.3717 13.6356 18.3598 13.9559 18.3104 15.0201ZM20.128 6.77898C20.0786 5.7033 19.9089 4.96839 19.657 4.3283C19.4005 3.66423 19.0568 3.10145 18.494 2.53867C17.9337 1.97839 17.3709 1.63462 16.7069 1.3752C16.0643 1.12573 15.3318 0.954084 14.2557 0.907198C13.1795 0.855299 12.8357 0.845831 10.0927 0.845831C7.35211 0.845831 7.00587 0.855299 5.9297 0.907198C4.856 0.954084 4.12409 1.12573 3.4785 1.3752C2.81693 1.63462 2.25415 1.97839 1.69388 2.53867C1.1311 3.10145 0.787327 3.66423 0.528388 4.3283C0.278916 4.96839 0.109295 5.7033 0.0573952 6.77898C0.0105092 7.85515 -0.00146484 8.19941 -0.00146484 10.9425C-0.00146484 13.683 0.0105092 14.0268 0.0573952 15.1029C0.109295 16.1766 0.278916 16.911 0.528388 17.5541C0.787327 18.2157 1.1311 18.781 1.69388 19.3413C2.25415 19.9016 2.81693 20.2478 3.4785 20.5068C4.12409 20.7562 4.856 20.9259 5.9297 20.9753C7.00587 21.0246 7.35211 21.0366 10.0927 21.0366C12.8357 21.0366 13.1795 21.0246 14.2557 20.9753C15.3318 20.9259 16.0643 20.7562 16.7069 20.5068C17.3709 20.2478 17.9337 19.9016 18.494 19.3413C19.0568 18.781 19.4005 18.2157 19.657 17.5541C19.9089 16.911 20.0786 16.1766 20.128 15.1029C20.1774 14.0268 20.1893 13.683 20.1893 10.9425C20.1893 8.19941 20.1774 7.85515 20.128 6.77898Z" fill="url(#paint1_linear_414_509)"/>
<path d="M10.0939 14.3054C8.23641 14.3054 6.72917 12.8007 6.72917 10.9432C6.72917 9.08272 8.23641 7.576 10.0939 7.576C11.9519 7.576 13.4611 9.08272 13.4611 10.9432C13.4611 12.8007 11.9519 14.3054 10.0939 14.3054ZM10.0939 5.75595C7.23059 5.75595 4.91162 8.07989 4.91162 10.9432C4.91162 13.804 7.23059 16.1255 10.0939 16.1255C12.9572 16.1255 15.2787 13.804 15.2787 10.9432C15.2787 8.07989 12.9572 5.75595 10.0939 5.75595Z" fill="url(#paint2_linear_414_509)"/>
<defs>
<linearGradient id="paint0_linear_414_509" x1="0.182519" y1="20.8285" x2="18.5095" y2="2.50158" gradientUnits="userSpaceOnUse">
<stop stop-color="#FFD521"/>
<stop offset="0.05" stop-color="#FFD521"/>
<stop offset="0.501119" stop-color="#F50000"/>
<stop offset="0.95" stop-color="#B900B4"/>
<stop offset="0.950079" stop-color="#B900B4"/>
<stop offset="1" stop-color="#B900B4"/>
</linearGradient>
<linearGradient id="paint1_linear_414_509" x1="0.180653" y1="20.853" x2="18.5227" y2="2.51098" gradientUnits="userSpaceOnUse">
<stop stop-color="#FFD521"/>
<stop offset="0.05" stop-color="#FFD521"/>
<stop offset="0.501119" stop-color="#F50000"/>
<stop offset="0.95" stop-color="#B900B4"/>
<stop offset="0.950079" stop-color="#B900B4"/>
<stop offset="1" stop-color="#B900B4"/>
</linearGradient>
<linearGradient id="paint2_linear_414_509" x1="0.186617" y1="20.8542" x2="18.5242" y2="2.51661" gradientUnits="userSpaceOnUse">
<stop stop-color="#FFD521"/>
<stop offset="0.05" stop-color="#FFD521"/>
<stop offset="0.501119" stop-color="#F50000"/>
<stop offset="0.95" stop-color="#B900B4"/>
<stop offset="0.950079" stop-color="#B900B4"/>
<stop offset="1" stop-color="#B900B4"/>
</linearGradient>
</defs>
</svg>
