<svg width="23" height="22" viewBox="0 0 23 22" fill="none" xmlns="http://www.w3.org/2000/svg">
<path d="M2.76562 5.49976H4.59896H19.2656" stroke="white" stroke-width="0.891219" stroke-linecap="round" stroke-linejoin="round"/>
<path d="M17.4329 5.49992V18.3333C17.4329 18.8195 17.2398 19.2858 16.896 19.6296C16.5522 19.9734 16.0858 20.1666 15.5996 20.1666H6.43294C5.94671 20.1666 5.4804 19.9734 5.13658 19.6296C4.79276 19.2858 4.59961 18.8195 4.59961 18.3333V5.49992M7.34961 5.49992V3.66659C7.34961 3.18036 7.54276 2.71404 7.88658 2.37022C8.2304 2.02641 8.69671 1.83325 9.18294 1.83325H12.8496C13.3358 1.83325 13.8022 2.02641 14.146 2.37022C14.4898 2.71404 14.6829 3.18036 14.6829 3.66659V5.49992" stroke="white" stroke-width="0.891219" stroke-linecap="round" stroke-linejoin="round"/>
<path d="M9.18555 10.0833V15.5833" stroke="white" stroke-width="0.891219" stroke-linecap="round" stroke-linejoin="round"/>
<path d="M12.8477 10.0833V15.5833" stroke="white" stroke-width="0.891219" stroke-linecap="round" stroke-linejoin="round"/>
</svg>
