<svg width="83" height="52" viewBox="0 0 83 52" fill="none" xmlns="http://www.w3.org/2000/svg">
<g clip-path="url(#clip0_414_490)">
<path d="M57.609 0.245117C71.3778 0.245249 82.5398 11.5369 82.5398 25.4655C82.5398 39.3941 71.3778 50.6857 57.609 50.6859C51.4377 50.6859 45.7913 48.4155 41.4377 44.6582C37.0841 48.4157 31.4377 50.6859 25.2663 50.6859C11.4975 50.6859 0.335554 39.3941 0.335449 25.4655C0.335449 11.5368 11.4974 0.245117 25.2663 0.245117C31.4375 0.245134 37.0841 2.51435 41.4377 6.27166C45.7912 2.51442 51.438 0.245117 57.609 0.245117Z" fill="#ED0006"/>
<path d="M57.6075 0.245117C71.3764 0.245168 82.5383 11.5368 82.5383 25.4655C82.5382 39.3941 71.3762 50.6859 57.6075 50.6859C51.4362 50.6859 45.7896 48.4155 41.436 44.6582C46.7957 40.0323 50.1955 33.1511 50.1955 25.4655C50.1955 17.7795 46.7961 10.8975 41.436 6.27166C45.7896 2.51438 51.4363 0.245117 57.6075 0.245117Z" fill="#F9A000"/>
<path d="M41.4382 6.27148C46.7981 10.8973 50.1976 17.7795 50.1976 25.4654C50.1976 33.1509 46.7976 40.0321 41.4382 44.658C36.0787 40.0321 32.6787 33.1509 32.6787 25.4654C32.6788 17.7795 36.0782 10.8973 41.4382 6.27148Z" fill="#FF5E00"/>
</g>
<defs>
<clipPath id="clip0_414_490">
<rect width="82.5661" height="51.291" fill="white" transform="translate(0.336426 0.245117)"/>
</clipPath>
</defs>
</svg>
