<svg width="21" height="22" viewBox="0 0 21 22" fill="none" xmlns="http://www.w3.org/2000/svg">
<path d="M0.604004 10.9416C0.604004 5.36605 5.12387 0.846191 10.6994 0.846191C16.2749 0.846191 20.7948 5.36605 20.7948 10.9416C20.7948 16.5171 16.2749 21.037 10.6994 21.037C5.12387 21.037 0.604004 16.5171 0.604004 10.9416Z" fill="#55ACEE"/>
<path d="M10.3987 9.05224L10.4198 9.40156L10.0668 9.35878C8.78157 9.19482 7.65879 8.63875 6.70549 7.70484L6.23943 7.24146L6.11938 7.58365C5.86517 8.34646 6.02758 9.15204 6.55719 9.69385C6.83966 9.99327 6.7761 10.036 6.28886 9.85782C6.11938 9.80079 5.97109 9.75801 5.95697 9.7794C5.90754 9.8293 6.07701 10.478 6.21118 10.7347C6.39478 11.0911 6.76904 11.4405 7.17861 11.6472L7.52462 11.8112L7.11505 11.8183C6.71961 11.8183 6.70549 11.8254 6.74786 11.9751C6.88909 12.4385 7.44695 12.9304 8.06836 13.1443L8.50617 13.294L8.12485 13.5221C7.55993 13.8501 6.89615 14.0354 6.23236 14.0497C5.9146 14.0568 5.65332 14.0853 5.65332 14.1067C5.65332 14.178 6.51483 14.5772 7.01619 14.7341C8.5203 15.1975 10.3069 14.9979 11.6486 14.2065C12.6019 13.6433 13.5552 12.5241 14 11.4405C14.2401 10.863 14.4802 9.80791 14.4802 9.30175C14.4802 8.97382 14.5014 8.93104 14.8968 8.53894C15.1299 8.31081 15.3488 8.0613 15.3912 7.99001C15.4618 7.85455 15.4547 7.85455 15.0946 7.97575C14.4943 8.18962 14.4096 8.1611 14.7062 7.8403C14.9251 7.61217 15.1864 7.19868 15.1864 7.07749C15.1864 7.0561 15.0805 7.09175 14.9604 7.15591C14.8333 7.2272 14.5508 7.33413 14.339 7.3983L13.9577 7.51949L13.6117 7.28423C13.421 7.15591 13.1527 7.01333 13.0114 6.97055C12.6513 6.87075 12.1005 6.885 11.7757 6.99907C10.893 7.31988 10.3351 8.14685 10.3987 9.05224Z" fill="white"/>
</svg>
