<svg width="98" height="32" viewBox="0 0 98 32" fill="none" xmlns="http://www.w3.org/2000/svg">
<g clip-path="url(#clip0_414_488)">
<path fill-rule="evenodd" clip-rule="evenodd" d="M24.8851 31.2071H16.4942L10.2023 7.2026C9.90354 6.09839 9.26942 5.1222 8.3367 4.66212C6.00889 3.5059 3.44379 2.58572 0.645508 2.12164V1.19747H14.1624C16.0279 1.19747 17.427 2.58572 17.6602 4.19803L20.9249 21.5133L29.3115 1.19747H37.4691L24.8851 31.2071ZM42.1329 31.2071H34.2085L40.7338 1.19747H48.6582L42.1329 31.2071ZM58.9104 9.51108C59.1435 7.89476 60.5427 6.97059 62.1751 6.97059C64.7402 6.73854 67.5344 7.20263 69.8662 8.35485L71.2654 1.89363C68.9334 0.969459 66.3684 0.505371 64.0406 0.505371C56.3494 0.505371 50.7528 4.66215 50.7528 10.4313C50.7528 14.82 54.7171 17.1245 57.5153 18.5127C60.5427 19.897 61.7086 20.8212 61.4755 22.2055C61.4755 24.2819 59.1435 25.206 56.8158 25.206C54.0175 25.206 51.2192 24.5139 48.6582 23.3576L47.2591 29.8229C50.0574 30.9751 53.0847 31.4392 55.883 31.4392C64.507 31.6672 69.8662 27.5145 69.8662 21.2813C69.8662 13.4318 58.9104 12.9717 58.9104 9.51108ZM97.5992 31.2071L91.3077 1.19747H84.5489C83.1499 1.19747 81.7507 2.12164 81.2844 3.5059L69.633 31.2071H77.7906L79.4188 26.8222H89.4417L90.3747 31.2071H97.5992ZM85.7148 9.27893L88.0431 20.5891H81.5176L85.7148 9.27893Z" fill="#172B85"/>
</g>
<defs>
<clipPath id="clip0_414_488">
<rect width="97.8561" height="31.2127" fill="white" transform="translate(0.0493164 0.505371)"/>
</clipPath>
</defs>
</svg>
