<svg width="90" height="31" viewBox="0 0 90 31" fill="none" xmlns="http://www.w3.org/2000/svg">
<g clip-path="url(#clip0_405_3318)">
<path d="M20.7889 16.2467C20.752 12.3777 23.9497 10.5188 24.0936 10.4302C22.2937 7.8005 19.498 7.43905 18.5022 7.39848C16.1232 7.15505 13.8586 8.80002 12.6489 8.80002C11.4391 8.80002 9.57652 7.43167 7.60329 7.47224C5.00674 7.50913 2.61305 8.98075 1.27421 11.3044C-1.41824 15.9737 0.588187 22.9077 3.21793 26.7029C4.50514 28.5581 6.03208 30.6494 8.04588 30.5719C9.98592 30.4945 10.7162 29.3179 13.0546 29.3179C15.3929 29.3179 16.0531 30.5719 18.1001 30.535C20.184 30.4945 21.5044 28.6393 22.7806 26.7767C24.2485 24.619 24.8571 22.5352 24.8939 22.4245C24.846 22.4061 20.8331 20.8681 20.7889 16.2467Z" fill="white"/>
<path d="M16.5684 4.71446C17.638 3.41987 18.3572 1.62368 18.1617 -0.168823C16.6237 -0.106123 14.7611 0.856518 13.6583 2.1511C12.6699 3.29447 11.8031 5.12385 12.0392 6.87947C13.7469 7.01225 15.5025 6.00535 16.5684 4.71446ZM33.9033 19.8806L32.1329 25.2471H29.8573L35.6515 8.1925H38.3071L44.1235 25.2471H41.7704L39.9484 19.8806H33.9033ZM39.4947 18.1582L37.8276 13.2491C37.4477 12.1353 37.1969 11.1247 36.9424 10.1362H36.8945C36.64 11.1468 36.3634 12.1832 36.0351 13.2233L34.368 18.1545L39.4947 18.1582ZM45.8496 16.9964C45.8496 15.4289 45.8017 14.1601 45.7463 12.9983H47.7454L47.8487 15.1006H47.8966C48.8076 13.6069 50.2497 12.7217 52.2488 12.7217C55.2105 12.7217 57.4345 15.226 57.4345 18.9475C57.4345 23.3513 54.7531 25.5237 51.8689 25.5237C50.2497 25.5237 48.8334 24.8156 48.0995 23.6021H48.0515V30.2558H45.8496V16.9964ZM48.0478 20.2605C48.0478 20.5925 48.0958 20.8912 48.1511 21.1715C48.5568 22.7132 49.8957 23.7792 51.4927 23.7792C53.8458 23.7792 55.2142 21.8576 55.2142 19.0471C55.2142 16.5907 53.9233 14.4958 51.5701 14.4958C50.0543 14.4958 48.638 15.5838 48.2027 17.2546C48.1253 17.5312 48.0515 17.8632 48.0515 18.1656L48.0478 20.2605ZM59.736 16.9964C59.736 15.4289 59.688 14.1601 59.6327 12.9983H61.6318L61.735 15.1006H61.783C62.694 13.6069 64.1361 12.7217 66.1351 12.7217C69.0968 12.7217 71.3209 15.226 71.3209 18.9475C71.3209 23.3513 68.6395 25.5237 65.7553 25.5237C64.1361 25.5237 62.7198 24.8156 61.9858 23.6021H61.9379V30.2558H59.736V16.9964ZM61.9379 20.2605C61.9379 20.5925 61.9858 20.8912 62.0412 21.1715C62.4469 22.7132 63.7857 23.7792 65.3827 23.7792C67.7359 23.7792 69.1042 21.8576 69.1042 19.0471C69.1042 16.5907 67.8133 14.4958 65.4602 14.4958C63.9443 14.4958 62.528 15.5838 62.0928 17.2546C62.0153 17.5312 61.9416 17.8632 61.9416 18.1656L61.9379 20.2605ZM73.626 7.2815H75.8538V25.2434H73.626V7.2815ZM80.3313 19.5266C80.3793 22.5362 82.3046 23.7792 84.5286 23.7792C86.1219 23.7792 87.0846 23.5025 87.9181 23.1485L88.298 24.7418C87.5161 25.0959 86.1736 25.5016 84.2261 25.5016C80.4567 25.5016 78.2032 23.0231 78.2032 19.3274C78.2032 15.6318 80.3793 12.7217 83.9458 12.7217C87.9439 12.7217 89.0061 16.2366 89.0061 18.4902C89.0061 18.9475 88.9582 19.2979 88.9287 19.5266H80.3313ZM86.8596 17.9332C86.8854 16.5169 86.2768 14.315 83.7725 14.315C81.5189 14.315 80.5342 16.3915 80.3571 17.9332H86.8596Z" fill="white"/>
</g>
<defs>
<clipPath id="clip0_405_3318">
<rect width="89.3854" height="30.5758" fill="white"/>
</clipPath>
</defs>
</svg>
