<svg width="70" height="42" viewBox="0 0 70 42" fill="none" xmlns="http://www.w3.org/2000/svg">
<g clip-path="url(#clip0_405_3312)">
<path d="M20.0959 15.2799C20.0959 16.1317 20.188 16.8224 20.3492 17.3289C20.5334 17.8354 20.7636 18.388 21.0859 18.9866C21.2011 19.1708 21.2471 19.355 21.2471 19.5161C21.2471 19.7463 21.109 19.9766 20.8097 20.2068L19.3592 21.1738C19.152 21.3119 18.9448 21.381 18.7606 21.381C18.5304 21.381 18.3001 21.2659 18.0699 21.0587C17.7476 20.7133 17.4713 20.3449 17.2411 19.9766C17.0108 19.5852 16.7806 19.1477 16.5274 18.6182C14.7315 20.7363 12.4753 21.7954 9.75854 21.7954C7.8246 21.7954 6.28204 21.2429 5.15391 20.1377C4.02577 19.0326 3.4502 17.5591 3.4502 15.7173C3.4502 13.7603 4.14089 12.1717 5.5453 10.9745C6.94972 9.77732 8.81459 9.17872 11.186 9.17872C11.9688 9.17872 12.7746 9.24778 13.6264 9.3629C14.4783 9.47802 15.3532 9.6622 16.2741 9.86941V8.18872C16.2741 6.43896 15.9057 5.21873 15.192 4.50501C14.4553 3.79129 13.212 3.44595 11.4392 3.44595C10.6334 3.44595 9.80459 3.53804 8.95273 3.74525C8.10087 3.95246 7.27204 4.20571 6.46623 4.52804C6.09786 4.6892 5.82158 4.78129 5.66042 4.82734C5.49926 4.87338 5.38414 4.89641 5.29205 4.89641C4.96972 4.89641 4.80856 4.66617 4.80856 4.18269V3.05455C4.80856 2.68618 4.85461 2.4099 4.96972 2.24874C5.08484 2.08758 5.29205 1.92642 5.61437 1.76526C6.42018 1.35084 7.38716 1.00549 8.51529 0.729214C9.64343 0.429913 10.8406 0.291774 12.1069 0.291774C14.8467 0.291774 16.8497 0.913399 18.139 2.15665C19.4052 3.3999 20.0499 5.2878 20.0499 7.82035V15.2799H20.0959ZM10.7485 18.7794C11.5083 18.7794 12.2911 18.6412 13.1199 18.365C13.9488 18.0887 14.6855 17.5822 15.3071 16.8915C15.6755 16.454 15.9518 15.9705 16.0899 15.418C16.2281 14.8654 16.3201 14.1978 16.3201 13.415V12.448C15.6525 12.2868 14.9388 12.1487 14.202 12.0566C13.4653 11.9645 12.7516 11.9185 12.0378 11.9185C10.4953 11.9185 9.36715 12.2178 8.60738 12.8394C7.84762 13.461 7.47925 14.3359 7.47925 15.4871C7.47925 16.5692 7.75553 17.375 8.33111 17.9275C8.88366 18.5031 9.68947 18.7794 10.7485 18.7794ZM29.2361 21.2659C28.8217 21.2659 28.5454 21.1968 28.3613 21.0356C28.1771 20.8975 28.0159 20.5752 27.8778 20.1377L22.4673 2.34084C22.3292 1.88037 22.2601 1.58107 22.2601 1.41991C22.2601 1.05154 22.4443 0.84433 22.8127 0.84433H25.0689C25.5064 0.84433 25.8057 0.913399 25.9668 1.07456C26.151 1.2127 26.2892 1.53502 26.4273 1.97246L30.2952 17.2138L33.8868 1.97246C34.0019 1.512 34.1401 1.2127 34.3243 1.07456C34.5084 0.936422 34.8308 0.84433 35.2452 0.84433H37.087C37.5245 0.84433 37.8238 0.913399 38.008 1.07456C38.1921 1.2127 38.3533 1.53502 38.4454 1.97246L42.0831 17.398L46.0661 1.97246C46.2042 1.512 46.3654 1.2127 46.5265 1.07456C46.7107 0.936422 47.01 0.84433 47.4244 0.84433H49.5656C49.934 0.84433 50.1412 1.02852 50.1412 1.41991C50.1412 1.53502 50.1181 1.65014 50.0951 1.78828C50.0721 1.92642 50.0261 2.1106 49.934 2.36386L44.3854 20.1608C44.2472 20.6212 44.0861 20.9205 43.9019 21.0587C43.7177 21.1968 43.4184 21.2889 43.027 21.2889H41.047C40.6096 21.2889 40.3103 21.2198 40.1261 21.0587C39.9419 20.8975 39.7807 20.5982 39.6887 20.1377L36.1201 5.2878L32.5745 20.1147C32.4594 20.5752 32.3212 20.8745 32.1371 21.0356C31.9529 21.1968 31.6305 21.2659 31.2161 21.2659H29.2361ZM58.8209 21.8875C57.6237 21.8875 56.4265 21.7494 55.2753 21.4731C54.1242 21.1968 53.2263 20.8975 52.6277 20.5522C52.2593 20.3449 52.006 20.1147 51.914 19.9075C51.8219 19.7003 51.7758 19.4701 51.7758 19.2629V18.0887C51.7758 17.6052 51.96 17.375 52.3053 17.375C52.4435 17.375 52.5816 17.398 52.7198 17.444C52.8579 17.4901 53.0651 17.5822 53.2953 17.6743C54.0781 18.0196 54.93 18.2959 55.8279 18.4801C56.7488 18.6643 57.6467 18.7564 58.5676 18.7564C60.0181 18.7564 61.1462 18.5031 61.929 17.9966C62.7118 17.4901 63.1262 16.7533 63.1262 15.8094C63.1262 15.1647 62.919 14.6352 62.5046 14.1978C62.0902 13.7603 61.3074 13.3689 60.1793 13.0006L56.8409 11.9645C55.1602 11.435 53.917 10.6522 53.1572 9.61615C52.3974 8.60314 52.006 7.475 52.006 6.2778C52.006 5.31082 52.2133 4.45897 52.6277 3.72222C53.0421 2.98548 53.5946 2.34084 54.2853 1.83433C54.976 1.30479 55.7588 0.913399 56.6797 0.637121C57.6007 0.360843 58.5676 0.245728 59.5807 0.245728C60.0872 0.245728 60.6167 0.268751 61.1232 0.33782C61.6528 0.40689 62.1362 0.498982 62.6197 0.591075C63.0802 0.706191 63.5176 0.821307 63.932 0.959446C64.3465 1.09758 64.6688 1.23572 64.899 1.37386C65.2213 1.55805 65.4516 1.74223 65.5897 1.94944C65.7278 2.13363 65.7969 2.38688 65.7969 2.70921V3.79129C65.7969 4.27478 65.6127 4.52804 65.2674 4.52804C65.0832 4.52804 64.7839 4.43594 64.3925 4.25176C63.0802 3.65316 61.6067 3.35385 59.9721 3.35385C58.6597 3.35385 57.6237 3.56106 56.91 3.9985C56.1963 4.43594 55.8279 5.10361 55.8279 6.04756C55.8279 6.69221 56.0581 7.24477 56.5186 7.68221C56.979 8.11965 57.8309 8.55709 59.0511 8.94848L62.3204 9.98453C63.9781 10.5141 65.1753 11.2508 65.889 12.1947C66.6027 13.1387 66.9481 14.2208 66.9481 15.418C66.9481 16.408 66.7409 17.3059 66.3495 18.0887C65.9351 18.8715 65.3825 19.5622 64.6688 20.1147C63.9551 20.6903 63.1032 21.1047 62.1132 21.404C61.0772 21.7263 59.9951 21.8875 58.8209 21.8875Z" fill="#252F3E"/>
<path d="M63.1713 33.0765C55.5966 38.6712 44.5916 41.6412 35.129 41.6412C21.8677 41.6412 9.91867 36.7372 0.893587 28.587C0.179868 27.9424 0.824517 27.0675 1.67637 27.574C11.4382 33.2377 23.4793 36.6682 35.9348 36.6682C44.3383 36.6682 53.5706 34.9184 62.0661 31.3268C63.3324 30.7512 64.4145 32.1556 63.1713 33.0765Z" fill="#FF9900"/>
<path d="M66.3265 29.4847C65.3595 28.2415 59.9261 28.8861 57.4626 29.1854C56.7259 29.2775 56.6107 28.6329 57.2784 28.1494C61.6068 25.1103 68.7209 25.9852 69.5498 26.9982C70.3786 28.0343 69.3195 35.1484 65.2674 38.5559C64.6458 39.0854 64.0472 38.8091 64.3235 38.1184C65.2444 35.8391 67.2935 30.705 66.3265 29.4847Z" fill="#FF9900"/>
</g>
<defs>
<clipPath id="clip0_405_3312">
<rect width="69.53" height="41.4417" fill="white" transform="translate(0.433594 0.222534)"/>
</clipPath>
</defs>
</svg>
