<svg width="73" height="64" viewBox="0 0 73 64" fill="none" xmlns="http://www.w3.org/2000/svg">
<path d="M30.0144 22.6756C23.5576 22.686 17.5301 28.3894 17.6333 34.9274C17.4737 39.7537 21.6278 44.0114 26.381 44.2928C31.2496 44.7698 36.0747 41.8584 38.1763 37.488C39.4734 42.4114 45.0652 45.1962 49.8885 44.1839C55.646 43.3137 60.8013 37.995 60.316 31.9749C60.3496 26.9864 55.6994 22.8553 50.8197 22.9364C46.5084 22.8554 42.0893 24.8135 39.7669 28.5493C38.7261 29.3342 39.0024 31.7274 37.5416 31.5699C34.6614 31.601 31.7707 31.5076 28.897 31.6167C28.2156 32.588 25.6627 35.9527 28.0581 35.9568C29.7133 35.9568 31.3685 35.9568 33.0238 35.9568C31.6658 38.5439 28.1091 39.8841 25.5771 38.1592C22.4041 35.9835 23.3778 30.7941 26.5142 29.0508C28.5349 27.5512 31.6878 27.8449 33.1912 29.9407C34.9405 29.9634 36.7632 29.0529 38.5428 28.7396C39.2471 27.4171 36.952 25.4013 35.8191 24.4576C34.1544 23.2279 32.079 22.6085 30.0144 22.6756ZM49.7875 28.126C52.9523 27.8701 55.4121 31.3155 54.4544 34.2596C53.6493 38.0273 48.5643 40.5177 45.3986 37.8914C42.2554 35.3622 43.9296 30.0317 47.4075 28.7054C48.1611 28.3891 48.9664 28.1559 49.7875 28.126ZM7.40991 28.2018C6.58254 28.5464 6.16041 29.6132 7.45778 29.2511C10.6312 29.2241 13.8286 29.3401 16.987 29.2239C17.8249 28.5367 17.6086 27.9404 16.5214 28.2018C13.4842 28.2018 10.4471 28.2018 7.40991 28.2018ZM3.13633 30.8054C2.30918 31.1499 1.88666 32.219 3.1842 31.851C7.40831 31.814 11.6472 31.8889 15.862 31.7818C16.6624 30.8001 15.6287 30.6732 14.8011 30.8054C10.9129 30.8054 7.02459 30.8054 3.13633 30.8054ZM9.75925 33.4096C8.837 33.932 9.03732 34.8001 10.1579 34.4611C11.9232 34.4308 13.7198 34.5538 15.4657 34.4282C16.0213 33.3742 14.9782 33.289 14.1787 33.4096C12.7055 33.4096 11.2324 33.4096 9.75925 33.4096Z" fill="#00ACD7"/>
</svg>
