<svg width="89" height="45" viewBox="0 0 89 45" fill="none" xmlns="http://www.w3.org/2000/svg">
<path d="M14.9395 13.0089C14.4075 13.2631 13.8311 14.1587 13.8311 15.4061C13.8311 18.7352 17.5998 20.3572 17.5998 23.2746C17.5998 23.2746 17.6116 25.006 16.6687 25.3689V24.6787C16.6687 22.5726 12.577 19.9818 12.577 17.6696V16.7606C12.045 17.0148 11.4686 17.943 11.4686 19.1697C11.4686 22.3531 15.2373 23.7941 15.2373 27.0382C15.2373 27.0382 15.2373 28.3942 14.4023 28.8302C14.4267 28.7577 14.4267 28.6728 14.4267 28.6085C14.4267 28.4629 14.4023 28.3424 14.4023 28.3424C14.3173 26.8534 10.4436 23.149 10.4436 21.9873C7.02962 22.9184 4.20898 24.6255 4.20898 26.733C4.20898 29.5536 8.83343 31.8171 14.5227 31.8171C14.5597 31.8171 14.5833 31.8415 14.6188 31.8171C20.3679 31.8052 25.0057 29.4568 25.0057 26.6236C25.0057 24.5176 22.4031 22.7071 18.723 21.9511C18.8316 21.6725 18.8316 21.4309 18.8316 21.4309C18.8316 18.7928 14.9092 16.2256 14.9092 13.9252L14.9395 13.0089ZM72.6557 17.275L70.6368 18.1285V18.5164L70.8866 18.4388C71.0057 18.396 71.131 18.3728 71.2576 18.3701C71.4645 18.3701 71.6285 18.4566 71.6285 18.7669V21.7339C71.3182 21.6046 70.8955 21.4841 70.3006 21.4841C68.5153 21.4841 67.1703 22.8985 67.1703 24.6232C67.1703 26.5889 68.6276 27.4949 69.8439 27.4949C70.7159 27.4949 71.327 27.0034 71.6633 26.6414C71.732 26.9428 71.8702 27.2968 72.1547 27.4949L73.9651 26.8135V26.4256L73.6548 26.529C73.5166 26.5808 73.439 26.5808 73.3355 26.5808C72.9823 26.5808 72.9128 26.2874 72.9128 25.796V17.2757L72.6557 17.275ZM31.9002 18.1115C29.9686 18.1115 28.9592 19.2842 28.9592 20.6387C28.9592 21.725 29.7439 22.5009 30.7009 22.9842L31.7096 23.5015C32.4079 23.8547 33.4513 24.3291 33.4513 25.3814C33.4513 26.3642 32.6577 26.9938 31.53 26.9938C30.3994 26.9938 29.4254 26.011 29.2444 24.7178H28.8749V27.1668C28.8749 27.1668 29.9095 27.5636 31.3135 27.5636C33.4521 27.5636 34.6241 26.4514 34.6241 24.7703C34.6241 23.4505 33.4772 22.6657 32.555 22.2002L31.5529 21.6755C30.8287 21.306 30.208 20.907 30.208 20.0113C30.208 19.3212 30.777 18.6576 31.7687 18.6576C33.0885 18.6576 33.7432 19.5813 33.9509 20.7444H34.296V18.5452C34.296 18.5452 33.2097 18.1056 31.8899 18.1056L31.9002 18.1115ZM51.0195 20.0697C50.4579 21.3999 49.0361 21.9497 49.0361 21.9497V22.2859H49.985V25.3733C49.985 26.7773 50.5983 27.4424 51.7267 27.4424C51.8472 27.4424 52.0718 27.3995 52.0718 27.3995L53.2445 26.6665L53.0982 26.3472C52.7709 26.5283 52.4332 26.597 52.21 26.597C51.6668 26.597 51.2863 26.2091 51.2863 25.493V22.2859H53.0967L53.3206 21.7243H51.2855V20.0764L51.0195 20.0697ZM84.4208 21.459C83.7823 21.459 83.2222 21.8469 82.7566 22.7522V21.4834H82.4891L80.6417 22.294V22.682L80.8139 22.6132C80.9071 22.5761 81.0069 22.5585 81.1072 22.5615C81.3659 22.5615 81.5211 22.7093 81.5211 23.0101V26.4684C81.5211 26.7271 81.3311 26.9266 81.0814 26.9857L80.6417 27.0633V27.3737H83.9449V27.0633L83.3153 26.9857C83.0655 26.9428 82.798 26.7359 82.798 26.4684V23.3012C83.1675 22.5512 83.6848 22.4145 84.0912 22.4145C84.4791 22.4145 84.7296 22.5955 84.7984 22.9576H85.0481V21.5868C85.057 21.5868 84.9358 21.4575 84.4185 21.4575L84.4208 21.459ZM38.4556 21.4848C38.1283 21.4848 37.6708 21.5713 37.1358 21.8987C36.5927 22.226 36.2047 22.5371 36.1353 23.0027C36.1353 23.0455 36.1183 23.0973 36.1183 23.149C36.1183 23.4246 36.2387 23.684 36.3422 23.8658L37.1957 23.4778C37.1957 23.4778 37.0664 23.2192 37.0664 22.9946C37.0664 22.8652 37.0664 22.7012 37.1439 22.5807C37.342 22.2704 37.7307 22.0635 38.1194 22.0635C38.6884 22.0635 39.0763 22.5637 39.0763 23.3833V23.9264L37.3176 24.5649C36.317 24.9343 35.8692 25.4102 35.8692 26.031C35.8692 26.9029 36.4382 27.4793 37.3176 27.4793C37.9383 27.4793 38.6714 27.0049 39.1029 26.6428C39.1547 26.9443 39.2929 27.2894 39.5685 27.4793L41.379 26.798V26.4101L41.0597 26.5135C40.9134 26.5652 40.8528 26.5652 40.7494 26.5652C40.3961 26.5652 40.3614 26.2896 40.3614 25.858V23.183C40.3703 22.778 40.0858 21.4834 38.4549 21.4834L38.4556 21.4848ZM43.6468 21.4848L41.7847 22.2955V22.6835L41.9568 22.6147C42.05 22.5775 42.1499 22.5599 42.2502 22.563C42.5088 22.563 42.647 22.7108 42.647 23.0116V26.4699C42.647 26.7285 42.466 26.9281 42.2073 26.9872L41.7847 27.0648V27.3751H44.8462V27.0648L44.4235 26.9872C44.1649 26.9355 43.958 26.7374 43.958 26.4699V22.8911C44.2425 22.6325 44.7169 22.2962 45.2859 22.2962C46.3204 22.2962 46.4327 23.1586 46.4327 23.5466V26.4788C46.4327 26.7374 46.217 26.9369 45.9495 26.9961L45.5268 27.0736V27.384H48.6142V27.0736L48.1745 26.9961C47.9159 26.9532 47.7259 26.7463 47.7259 26.4788V23.5377C47.7259 22.4337 47.0875 21.4856 45.7677 21.4856C45.1728 21.4856 44.4996 21.8129 43.9306 22.4425V21.4834L43.6468 21.4848ZM56.4014 21.4848C56.074 21.4848 55.6255 21.5713 55.0993 21.8987C54.5562 22.226 54.1505 22.5371 54.0906 23.0027C54.0906 23.0455 54.0737 23.0973 54.0737 23.149C54.0737 23.4246 54.1941 23.684 54.2976 23.8658L55.1511 23.4778C55.1511 23.4778 55.0217 23.2192 55.0217 22.9946C55.0217 22.8652 55.0387 22.7012 55.1163 22.5807C55.3144 22.2704 55.7031 22.0635 56.0918 22.0635C56.6608 22.0635 57.0406 22.5637 57.0406 23.3833V23.9264L55.2819 24.5649C54.2813 24.9343 53.8335 25.4102 53.8335 26.031C53.8335 26.9029 54.4025 27.4793 55.2819 27.4793C55.9026 27.4793 56.6534 27.0049 57.0753 26.6428C57.1271 26.9443 57.2564 27.2894 57.5239 27.4793L59.3344 26.798V26.4101L59.024 26.5135C58.8777 26.5652 58.8082 26.5652 58.7048 26.5652C58.3515 26.5652 58.3168 26.2896 58.3168 25.858V23.183C58.3168 22.778 58.0323 21.4834 56.3955 21.4834L56.4014 21.4848ZM61.5926 21.4848L59.7304 22.2955V22.6835L59.9026 22.6147C59.9958 22.5775 60.0957 22.5599 60.196 22.563C60.4546 22.563 60.5928 22.7108 60.5928 23.0116V26.4699C60.5928 26.7285 60.4118 26.9281 60.1531 26.9872L59.7304 27.0648V27.3751H62.792V27.0648L62.3693 26.9872C62.1106 26.9355 61.9037 26.7374 61.9037 26.4699V22.8911C62.1882 22.6325 62.6627 22.2962 63.2317 22.2962C64.2662 22.2962 64.3785 23.1586 64.3785 23.5466V26.4788C64.3785 26.7374 64.1716 26.9369 63.913 26.9961L63.4733 27.0736V27.384H66.5607V27.0736L66.121 26.9961C65.8624 26.9532 65.6725 26.7463 65.6725 26.4788V23.5377C65.6725 22.4337 65.034 21.4856 63.7142 21.4856C63.1193 21.4856 62.4461 21.8129 61.8771 22.4425V21.4834L61.5926 21.4848ZM77.4604 21.4848C75.8052 21.4848 74.5194 22.8645 74.5194 24.5464C74.5194 25.9874 75.4165 27.5045 77.4346 27.5045C78.2775 27.5105 79.0913 27.1962 79.7113 26.6251V26.1078C79.2532 26.461 78.6938 26.6946 78.073 26.6946C76.839 26.6946 75.8561 25.8226 75.865 24.0986V24.0298H79.8835V23.8577C79.8746 22.4433 78.8142 21.493 77.4597 21.493L77.4604 21.4848ZM70.4403 22.028C70.9834 22.028 71.4748 22.2955 71.6389 22.7182V26.0901C71.5354 26.297 71.1039 26.7034 70.4144 26.7034C69.2764 26.7034 68.5522 25.8152 68.5522 24.3579C68.5433 22.6243 69.501 22.0302 70.441 22.0302L70.4403 22.028ZM77.3304 22.028C77.977 22.028 78.529 22.4935 78.529 23.469V23.4948H75.913C76.0608 22.512 76.6114 22.0287 77.3363 22.0287L77.3304 22.028ZM39.0919 24.3557V26.277C38.7645 26.5357 38.3071 26.7256 37.9878 26.7256C37.3228 26.7256 37.1255 26.1736 37.1255 25.8374C37.1255 25.2166 37.5999 24.992 37.8674 24.8804L39.0919 24.3557ZM57.0295 24.3557V26.277C56.7022 26.5357 56.2447 26.7256 55.9255 26.7256C55.2604 26.7256 55.0631 26.1736 55.0631 25.8374C55.0631 25.2166 55.5375 24.992 55.805 24.8804L57.0295 24.3557Z" fill="#FE0000"/>
</svg>
