<svg width="94" height="28" viewBox="0 0 94 28" fill="none" xmlns="http://www.w3.org/2000/svg">
<path d="M81.6088 0.186149C82.9441 -0.1599 84.3691 -0.020132 85.5994 0.577552C86.8298 1.17524 87.775 2.18686 88.2463 3.41049C88.9354 5.19232 88.4367 7.31491 87.0524 8.685C86.5869 9.16489 85.9476 9.44317 85.4368 9.86911C85.0908 10.136 85.2147 10.711 85.6182 10.863C85.8917 11.0049 86.2046 10.8871 86.4902 10.8459C87.9697 10.5236 89.4432 10.1729 90.9242 9.85207C91.3838 9.75594 91.8646 9.81302 92.2843 10.0135C92.704 10.214 93.0363 10.5455 93.2243 10.951C93.4148 11.4848 93.5266 12.04 93.6671 12.5894C93.8969 13.5208 93.2531 14.5572 92.2617 14.7972C90.7625 15.1678 89.2392 15.4759 87.7445 15.8407C87.2171 15.9628 86.7078 16.3235 86.6201 16.8559C86.5053 17.3358 86.8015 17.7873 87.1068 18.1493C88.6332 19.9345 90.1595 21.7191 91.6859 23.5033C91.9106 23.7575 92.0619 24.0617 92.1252 24.3867C92.1885 24.7117 92.1616 25.0466 92.0471 25.359C91.7826 26.1129 90.9892 26.4948 90.3847 26.996C89.5898 27.6647 88.2327 27.5923 87.5481 26.8157C86.33 25.4499 85.1527 24.0514 83.9513 22.6728C83.6944 22.3817 83.312 22.0864 82.8813 22.19C82.573 22.308 82.306 22.5047 82.1106 22.7579C81.0089 24.05 79.889 25.3292 78.7858 26.6169C78.5744 26.9038 78.2845 27.1317 77.9467 27.2766C77.6089 27.4216 77.2357 27.4782 76.8665 27.4404C76.0157 27.3865 75.461 26.7135 74.8172 26.2776C73.9105 25.6685 73.7306 24.3311 74.447 23.5289C75.9582 21.7414 77.4937 19.9624 79.017 18.182C79.3434 17.8071 79.6412 17.3429 79.5248 16.8374C79.4507 16.2993 78.9097 15.96 78.3914 15.8336C76.9209 15.4858 75.4444 15.1692 73.9755 14.8213C73.4945 14.7053 73.0754 14.428 72.797 14.0418C72.5186 13.6555 72.4003 13.1869 72.4642 12.7243C72.5715 12.172 72.7196 11.6268 72.8783 11.0859C73.0358 10.6498 73.3574 10.2829 73.7826 10.0538C74.2078 9.82483 74.7074 9.74954 75.1875 9.84213C76.8091 10.1758 78.4125 10.5918 80.0386 10.9027C80.6431 11.1086 81.1887 10.3547 80.7731 9.90886C80.356 9.52836 79.8104 9.30119 79.3903 8.92495C77.4075 7.30213 77.0146 4.251 78.547 2.23774C79.2819 1.2395 80.3649 0.51382 81.6088 0.186149Z" fill="#78009D"/>
<path d="M23.412 2.16832C24.9822 1.60893 26.8879 2.37703 27.5453 3.82806C27.7974 4.35185 27.8902 4.93098 27.8134 5.50127C27.7367 6.07157 27.4934 6.61077 27.1105 7.05914C26.7276 7.50751 26.22 7.84754 25.6441 8.04156C25.0681 8.23559 24.4462 8.27603 23.8473 8.15841C23.1726 8.0255 22.559 7.6979 22.0921 7.22138C21.6253 6.74487 21.3285 6.14324 21.2434 5.50057C21.0152 4.09072 21.9794 2.6255 23.412 2.16832Z" fill="#78009D"/>
<path d="M1.46303 10.3066C2.33653 10.0113 3.18888 9.34687 4.16667 9.60669C4.47376 9.68693 4.75666 9.83346 4.9928 10.0346C5.22894 10.2358 5.4118 10.4859 5.5268 10.7652C6.92925 13.4146 8.3196 16.0696 9.7281 18.7161C11.1381 16.0085 12.5889 13.3209 13.9989 10.6133C14.3737 9.84521 15.359 9.36958 16.2341 9.60101C16.76 9.74299 17.239 10.0099 17.7453 10.2044C18.2516 10.3989 18.8032 10.5878 19.1055 11.0322C19.3124 11.306 19.4307 11.6301 19.4463 11.9656C19.4618 12.3011 19.3739 12.6336 19.1931 12.9233C16.9685 16.6574 14.7243 20.38 12.4982 24.1112C12.2502 24.5622 11.8485 24.9221 11.3572 25.1335C10.6605 25.4175 9.88376 25.2655 9.14777 25.3081C8.72315 25.3322 8.29985 25.244 7.92588 25.0535C7.55191 24.8631 7.24224 24.5779 7.03201 24.2305C4.87091 20.6337 2.71183 17.0317 0.554761 13.4245C0.263088 12.9545 -0.05881 12.4519 0.00919659 11.884C0.0424443 11.1131 0.727044 10.5381 1.46303 10.3066Z" fill="#78009D"/>
<path d="M31.6843 10.0469C32.4006 9.72459 33.2242 9.32279 34.0177 9.68625C34.938 10.01 35.207 10.9641 35.6226 11.7066C36.8815 14.0294 38.0603 16.3919 39.3433 18.7005C40.7538 16.0057 42.1744 13.3133 43.6051 10.6233C43.9723 9.84243 44.9743 9.36254 45.8584 9.60533C46.3767 9.75724 46.8513 10.0114 47.3515 10.2045C47.8139 10.4032 48.3383 10.5552 48.6572 10.9541C48.8905 11.2339 49.0285 11.5733 49.053 11.928C49.0775 12.2827 48.9875 12.636 48.7947 12.9418C46.547 16.692 44.2992 20.4421 42.0515 24.1922C41.8516 24.5403 41.5524 24.8293 41.1875 25.0266C40.8226 25.224 40.4064 25.322 39.9856 25.3096C39.1529 25.2642 38.2431 25.4615 37.4875 25.0342C37.0145 24.8098 36.7077 24.3896 36.4659 23.9636C34.2826 20.3034 32.0938 16.6465 29.8995 12.9929C29.7081 12.7106 29.6064 12.3828 29.6064 12.0481C29.6064 11.7133 29.7081 11.3856 29.8995 11.1032C30.2803 10.4955 31.0601 10.3465 31.6843 10.0469Z" fill="#78009D"/>
<path d="M56.692 9.74017C58.4224 9.45621 60.26 9.62232 61.8514 10.3464C63.6613 11.1451 65.1085 12.5241 65.9329 14.2356C66.7573 15.947 66.9048 17.8787 66.3488 19.6832C65.7928 21.4876 64.5698 23.0466 62.8997 24.0797C61.2297 25.1128 59.2221 25.5523 57.238 25.3191C55.2539 25.086 53.4234 24.1955 52.0756 22.8078C50.7278 21.4201 49.9512 19.6262 49.8854 17.7487C49.8196 15.8711 50.4689 14.0331 51.7166 12.5651C52.9643 11.0971 54.7285 10.0954 56.692 9.74017ZM57.8239 14.4524C57.3205 14.5216 56.8408 14.6984 56.4216 14.9692C56.0024 15.2399 55.6549 15.5974 55.4059 16.0142C55.1157 16.4968 54.9683 17.0435 54.9789 17.5977C54.9895 18.1518 55.1577 18.6932 55.466 19.1657C55.7744 19.6382 56.2117 20.0246 56.7326 20.2848C57.2535 20.5451 57.839 20.6696 58.4284 20.6456C60.1784 20.6285 61.7109 19.0838 61.5764 17.4354C61.5945 15.6522 59.6827 14.1443 57.8239 14.4524Z" fill="#78009D"/>
<path d="M23.2573 9.80977C23.9933 9.75724 24.7323 9.79841 25.4698 9.78563C26.5624 9.75298 27.4692 10.7213 27.4465 11.7222C27.4692 15.5131 27.4465 19.3039 27.4571 23.0962C27.4888 23.806 27.2108 24.5628 26.5504 24.9689C25.7947 25.4842 24.8185 25.2528 23.9525 25.3068C23.5416 25.3504 23.1262 25.2795 22.758 25.1027C22.3898 24.926 22.0852 24.6513 21.8821 24.3129C21.5798 23.8174 21.6297 23.2296 21.6282 22.6802C21.6282 19.037 21.6282 15.3929 21.6282 11.7478C21.6172 11.2971 21.7739 10.8569 22.0713 10.5032C22.3687 10.1494 22.7881 9.90417 23.2573 9.80977Z" fill="#78009D"/>
</svg>
