<svg width="55" height="55" viewBox="0 0 55 55" fill="none" xmlns="http://www.w3.org/2000/svg">
<g clip-path="url(#clip0_405_3323)">
<path d="M3.88027 27.1025C3.88027 36.2648 9.20357 44.1848 16.9279 47.9369L5.8841 17.6804C4.59881 20.5597 3.88027 23.745 3.88027 27.1025ZM42.6598 25.9344C42.6598 23.072 41.6309 21.091 40.7512 19.5493C39.5764 17.6425 38.4767 16.0291 38.4767 14.1197C38.4767 11.9936 40.0892 10.0117 42.3654 10.0117C42.4666 10.0117 42.5628 10.0244 42.664 10.0294C38.545 6.25623 33.0589 3.95385 27.0297 3.95385C18.941 3.95385 11.8281 8.10151 7.68552 14.3871C8.23033 14.404 8.74141 14.4149 9.17827 14.4149C11.5979 14.4149 15.3466 14.1189 15.3466 14.1189C16.594 14.0464 16.7432 15.8807 15.4951 16.0291C15.4951 16.0291 14.241 16.175 12.8444 16.2492L21.2763 41.3249L26.3424 26.1301L22.737 16.2484C21.4897 16.1742 20.309 16.0283 20.309 16.0283C19.06 15.9532 19.2059 14.0455 20.4557 14.1181C20.4557 14.1181 24.2778 14.4141 26.5524 14.4141C28.9737 14.4141 32.7224 14.1181 32.7224 14.1181C33.9706 14.0455 34.1182 15.8798 32.8709 16.0283C32.8709 16.0283 31.6151 16.1742 30.2219 16.2484L38.588 41.1343L40.898 33.4193C42.0694 30.4093 42.6598 27.9172 42.6598 25.9344ZM27.4371 29.1249L20.4903 49.3107C22.565 49.9222 24.7586 50.2536 27.0297 50.2536C29.726 50.2536 32.3117 49.7872 34.7178 48.9422C34.6563 48.8435 34.5989 48.7389 34.5534 48.6217L27.4371 29.1249ZM47.3463 15.9954C47.4442 16.7333 47.5024 17.5236 47.5024 18.3762C47.5024 20.7258 47.063 23.3664 45.7406 26.6681L38.6698 47.1129C45.5542 43.0994 50.1817 35.6424 50.1817 27.1016C50.1817 23.0763 49.152 19.2938 47.3463 15.9954ZM0.0429688 27.1025C0.0429688 41.9844 12.1503 54.0901 27.0297 54.0901C41.91 54.0901 54.0182 41.9844 54.0182 27.1025C54.0182 12.2213 41.91 0.114868 27.0297 0.114868C12.1503 0.114868 0.0429688 12.2213 0.0429688 27.1025ZM1.28103 27.1025C1.28103 12.9053 12.8326 1.35545 27.0297 1.35545C41.2294 1.35545 52.781 12.9053 52.781 27.1025C52.781 41.3005 41.2294 52.8529 27.0297 52.8529C12.8326 52.8529 1.28103 41.3005 1.28103 27.1025Z" fill="white"/>
</g>
<defs>
<clipPath id="clip0_405_3323">
<rect width="53.9752" height="53.9752" fill="white" transform="translate(0.0429688 0.114868)"/>
</clipPath>
</defs>
</svg>
